<?xml version="1.0" encoding="UTF-8" standalone="yes"?><svg xmlns="http://www.w3.org/2000/svg" xmlns:xlink="http://www.w3.org/1999/xlink" height="311px" style="width:822px;height:311px;" version="1.1" viewBox="0 0 822 311" width="822px"><defs><filter height="300%" id="f1" width="300%" x="-1" y="-1"><feGaussianBlur result="blurOut" stdDeviation="2.0"/><feColorMatrix in="blurOut" result="blurOut2" type="matrix" values="0 0 0 0 0 0 0 0 0 0 0 0 0 0 0 0 0 0 .4 0"/><feOffset dx="4.0" dy="4.0" in="blurOut2" result="blurOut3"/><feBlend in="SourceGraphic" in2="blurOut3" mode="normal"/></filter></defs><g><text fill="#000000" font-family="sans-serif" font-size="18" lengthAdjust="spacingAndGlyphs" textLength="199" x="325" y="16.708">atyourservice package</text><polygon fill="#DDDDDD" filter="url(#f1)" points="22,44.9531,137,44.9531,144,67.25,815,67.25,815,304.9531,22,304.9531,22,44.9531" style="stroke: #000000; stroke-width: 2.0;"/><line style="stroke: #000000; stroke-width: 2.0;" x1="22" x2="144" y1="67.25" y2="67.25"/><text fill="#000000" font-family="sans-serif" font-size="14" font-weight="bold" lengthAdjust="spacingAndGlyphs" textLength="109" x="25" y="60.9482">atyourservice</text><rect fill="#FEFECE" filter="url(#f1)" height="48" style="stroke: #A80036; stroke-width: 1.5;" width="72" x="487" y="80.9531"/><ellipse cx="502" cy="96.9531" fill="#ADD1B2" rx="11" ry="11" style="stroke: #A80036; stroke-width: 1.0;"/><path d="M504.3438,92.625 L504.5156,92.7031 C504.7344,92.3906 504.9375,92.2969 505.2344,92.2969 C505.5313,92.2969 505.8125,92.4375 505.9688,92.7031 C506.0625,92.8594 506.0781,92.9844 506.0781,93.4219 L506.0781,94.8438 C506.0781,95.2656 506.0469,95.4531 505.9375,95.6094 C505.7656,95.8281 505.5,95.9688 505.2344,95.9688 C505.0156,95.9688 504.7813,95.8594 504.6406,95.7188 C504.5,95.5938 504.4688,95.4688 504.4063,95.0625 C504.3125,94.6563 504.1406,94.4375 503.6563,94.1563 C503.1875,93.9063 502.5781,93.75 502,93.75 C500.2656,93.75 499.0156,95.0625 499.0156,96.8438 L499.0156,97.9375 C499.0156,99.6406 500.3125,100.7344 502.3594,100.7344 C503.125,100.7344 503.8125,100.6094 504.2344,100.3438 C504.4219,100.25 504.4219,100.25 504.875,99.7656 C505.0625,99.5781 505.2656,99.5 505.4844,99.5 C505.9531,99.5 506.3438,99.8906 506.3438,100.3438 C506.3438,100.7344 506.0156,101.1875 505.4375,101.5938 C504.6875,102.1406 503.5313,102.4375 502.3125,102.4375 C499.4219,102.4375 497.3125,100.5469 497.3125,97.9688 L497.3125,96.8438 C497.3125,94.125 499.3125,92.0469 501.9375,92.0469 C502.8125,92.0469 503.4063,92.1875 504.3438,92.625 Z "/><text fill="#000000" font-family="sans-serif" font-size="12" lengthAdjust="spacingAndGlyphs" textLength="40" x="516" y="101.1074">Object</text><line style="stroke: #A80036; stroke-width: 1.5;" x1="488" x2="558" y1="112.9531" y2="112.9531"/><line style="stroke: #A80036; stroke-width: 1.5;" x1="488" x2="558" y1="120.9531" y2="120.9531"/><rect fill="#FEFECE" filter="url(#f1)" height="99.2188" style="stroke: #A80036; stroke-width: 1.5;" width="341" x="38.75" y="189.4531"/><ellipse cx="139" cy="205.4531" fill="#ADD1B2" rx="11" ry="11" style="stroke: #A80036; stroke-width: 1.0;"/><path d="M141.3438,201.125 L141.5156,201.2031 C141.7344,200.8906 141.9375,200.7969 142.2344,200.7969 C142.5313,200.7969 142.8125,200.9375 142.9688,201.2031 C143.0625,201.3594 143.0781,201.4844 143.0781,201.9219 L143.0781,203.3438 C143.0781,203.7656 143.0469,203.9531 142.9375,204.1094 C142.7656,204.3281 142.5,204.4688 142.2344,204.4688 C142.0156,204.4688 141.7813,204.3594 141.6406,204.2188 C141.5,204.0938 141.4688,203.9688 141.4063,203.5625 C141.3125,203.1563 141.1406,202.9375 140.6563,202.6563 C140.1875,202.4063 139.5781,202.25 139,202.25 C137.2656,202.25 136.0156,203.5625 136.0156,205.3438 L136.0156,206.4375 C136.0156,208.1406 137.3125,209.2344 139.3594,209.2344 C140.125,209.2344 140.8125,209.1094 141.2344,208.8438 C141.4219,208.75 141.4219,208.75 141.875,208.2656 C142.0625,208.0781 142.2656,208 142.4844,208 C142.9531,208 143.3438,208.3906 143.3438,208.8438 C143.3438,209.2344 143.0156,209.6875 142.4375,210.0938 C141.6875,210.6406 140.5313,210.9375 139.3125,210.9375 C136.4219,210.9375 134.3125,209.0469 134.3125,206.4688 L134.3125,205.3438 C134.3125,202.625 136.3125,200.5469 138.9375,200.5469 C139.8125,200.5469 140.4063,200.6875 141.3438,201.125 Z "/><text fill="#000000" font-family="sans-serif" font-size="12" lengthAdjust="spacingAndGlyphs" textLength="132" x="159.5" y="209.6074">AtYourServiceFactory</text><line style="stroke: #A80036; stroke-width: 1.5;" x1="39.75" x2="378.75" y1="221.4531" y2="221.4531"/><line style="stroke: #A80036; stroke-width: 1.5;" x1="39.75" x2="378.75" y1="229.4531" y2="229.4531"/><ellipse cx="49.75" cy="241.3555" fill="#84BE84" rx="3" ry="3" style="stroke: #038048; stroke-width: 1.0;"/><text fill="#000000" font-family="sans-serif" font-size="11" lengthAdjust="spacingAndGlyphs" textLength="315" x="58.75" y="243.6636">Service[] findServices(domain, name, instance. parent)</text><ellipse cx="49.75" cy="254.1602" fill="#84BE84" rx="3" ry="3" style="stroke: #038048; stroke-width: 1.0;"/><text fill="#000000" font-family="sans-serif" font-size="11" lengthAdjust="spacingAndGlyphs" textLength="285" x="58.75" y="256.4683">ServiceTemplates[] findTemplates(domain, name)</text><ellipse cx="49.75" cy="266.9648" fill="#84BE84" rx="3" ry="3" style="stroke: #038048; stroke-width: 1.0;"/><text fill="#000000" font-family="sans-serif" font-size="11" lengthAdjust="spacingAndGlyphs" textLength="312" x="58.75" y="269.2729">Service new(domain, name. instance, parent, hrddata)</text><ellipse cx="49.75" cy="279.7695" fill="#84BE84" rx="3" ry="3" style="stroke: #038048; stroke-width: 1.0;"/><text fill="#000000" font-family="sans-serif" font-size="11" lengthAdjust="spacingAndGlyphs" textLength="103" x="58.75" y="282.0776">Service load(path)</text><rect fill="#FEFECE" filter="url(#f1)" height="48" style="stroke: #A80036; stroke-width: 1.5;" width="77" x="414.75" y="214.9531"/><ellipse cx="429.75" cy="230.9531" fill="#ADD1B2" rx="11" ry="11" style="stroke: #A80036; stroke-width: 1.0;"/><path d="M432.0938,226.625 L432.2656,226.7031 C432.4844,226.3906 432.6875,226.2969 432.9844,226.2969 C433.2813,226.2969 433.5625,226.4375 433.7188,226.7031 C433.8125,226.8594 433.8281,226.9844 433.8281,227.4219 L433.8281,228.8438 C433.8281,229.2656 433.7969,229.4531 433.6875,229.6094 C433.5156,229.8281 433.25,229.9688 432.9844,229.9688 C432.7656,229.9688 432.5313,229.8594 432.3906,229.7188 C432.25,229.5938 432.2188,229.4688 432.1563,229.0625 C432.0625,228.6563 431.8906,228.4375 431.4063,228.1563 C430.9375,227.9063 430.3281,227.75 429.75,227.75 C428.0156,227.75 426.7656,229.0625 426.7656,230.8438 L426.7656,231.9375 C426.7656,233.6406 428.0625,234.7344 430.1094,234.7344 C430.875,234.7344 431.5625,234.6094 431.9844,234.3438 C432.1719,234.25 432.1719,234.25 432.625,233.7656 C432.8125,233.5781 433.0156,233.5 433.2344,233.5 C433.7031,233.5 434.0938,233.8906 434.0938,234.3438 C434.0938,234.7344 433.7656,235.1875 433.1875,235.5938 C432.4375,236.1406 431.2813,236.4375 430.0625,236.4375 C427.1719,236.4375 425.0625,234.5469 425.0625,231.9688 L425.0625,230.8438 C425.0625,228.125 427.0625,226.0469 429.6875,226.0469 C430.5625,226.0469 431.1563,226.1875 432.0938,226.625 Z "/><text fill="#000000" font-family="sans-serif" font-size="12" lengthAdjust="spacingAndGlyphs" textLength="45" x="443.75" y="235.1074">Service</text><line style="stroke: #A80036; stroke-width: 1.5;" x1="415.75" x2="490.75" y1="246.9531" y2="246.9531"/><line style="stroke: #A80036; stroke-width: 1.5;" x1="415.75" x2="490.75" y1="254.9531" y2="254.9531"/><rect fill="#FEFECE" filter="url(#f1)" height="48" style="stroke: #A80036; stroke-width: 1.5;" width="135" x="526.75" y="214.9531"/><ellipse cx="541.75" cy="230.9531" fill="#ADD1B2" rx="11" ry="11" style="stroke: #A80036; stroke-width: 1.0;"/><path d="M544.0938,226.625 L544.2656,226.7031 C544.4844,226.3906 544.6875,226.2969 544.9844,226.2969 C545.2813,226.2969 545.5625,226.4375 545.7188,226.7031 C545.8125,226.8594 545.8281,226.9844 545.8281,227.4219 L545.8281,228.8438 C545.8281,229.2656 545.7969,229.4531 545.6875,229.6094 C545.5156,229.8281 545.25,229.9688 544.9844,229.9688 C544.7656,229.9688 544.5313,229.8594 544.3906,229.7188 C544.25,229.5938 544.2188,229.4688 544.1563,229.0625 C544.0625,228.6563 543.8906,228.4375 543.4063,228.1563 C542.9375,227.9063 542.3281,227.75 541.75,227.75 C540.0156,227.75 538.7656,229.0625 538.7656,230.8438 L538.7656,231.9375 C538.7656,233.6406 540.0625,234.7344 542.1094,234.7344 C542.875,234.7344 543.5625,234.6094 543.9844,234.3438 C544.1719,234.25 544.1719,234.25 544.625,233.7656 C544.8125,233.5781 545.0156,233.5 545.2344,233.5 C545.7031,233.5 546.0938,233.8906 546.0938,234.3438 C546.0938,234.7344 545.7656,235.1875 545.1875,235.5938 C544.4375,236.1406 543.2813,236.4375 542.0625,236.4375 C539.1719,236.4375 537.0625,234.5469 537.0625,231.9688 L537.0625,230.8438 C537.0625,228.125 539.0625,226.0469 541.6875,226.0469 C542.5625,226.0469 543.1563,226.1875 544.0938,226.625 Z "/><text fill="#000000" font-family="sans-serif" font-size="12" lengthAdjust="spacingAndGlyphs" textLength="103" x="555.75" y="235.1074">ServiceTemplate</text><line style="stroke: #A80036; stroke-width: 1.5;" x1="527.75" x2="660.75" y1="246.9531" y2="246.9531"/><line style="stroke: #A80036; stroke-width: 1.5;" x1="527.75" x2="660.75" y1="254.9531" y2="254.9531"/><rect fill="#FEFECE" filter="url(#f1)" height="48" style="stroke: #A80036; stroke-width: 1.5;" width="102" x="697" y="214.9531"/><ellipse cx="712" cy="230.9531" fill="#ADD1B2" rx="11" ry="11" style="stroke: #A80036; stroke-width: 1.0;"/><path d="M714.3438,226.625 L714.5156,226.7031 C714.7344,226.3906 714.9375,226.2969 715.2344,226.2969 C715.5313,226.2969 715.8125,226.4375 715.9688,226.7031 C716.0625,226.8594 716.0781,226.9844 716.0781,227.4219 L716.0781,228.8438 C716.0781,229.2656 716.0469,229.4531 715.9375,229.6094 C715.7656,229.8281 715.5,229.9688 715.2344,229.9688 C715.0156,229.9688 714.7813,229.8594 714.6406,229.7188 C714.5,229.5938 714.4688,229.4688 714.4063,229.0625 C714.3125,228.6563 714.1406,228.4375 713.6563,228.1563 C713.1875,227.9063 712.5781,227.75 712,227.75 C710.2656,227.75 709.0156,229.0625 709.0156,230.8438 L709.0156,231.9375 C709.0156,233.6406 710.3125,234.7344 712.3594,234.7344 C713.125,234.7344 713.8125,234.6094 714.2344,234.3438 C714.4219,234.25 714.4219,234.25 714.875,233.7656 C715.0625,233.5781 715.2656,233.5 715.4844,233.5 C715.9531,233.5 716.3438,233.8906 716.3438,234.3438 C716.3438,234.7344 716.0156,235.1875 715.4375,235.5938 C714.6875,236.1406 713.5313,236.4375 712.3125,236.4375 C709.4219,236.4375 707.3125,234.5469 707.3125,231.9688 L707.3125,230.8438 C707.3125,228.125 709.3125,226.0469 711.9375,226.0469 C712.8125,226.0469 713.4063,226.1875 714.3438,226.625 Z "/><text fill="#000000" font-family="sans-serif" font-size="12" lengthAdjust="spacingAndGlyphs" textLength="70" x="726" y="235.1074">ActionBase</text><line style="stroke: #A80036; stroke-width: 1.5;" x1="698" x2="798" y1="246.9531" y2="246.9531"/><line style="stroke: #A80036; stroke-width: 1.5;" x1="698" x2="798" y1="254.9531" y2="254.9531"/><path d="M468.307,128.9451 C428.657,145.6131 373.588,168.7631 324.393,189.4441 " fill="none" style="stroke: #A80036; stroke-width: 1.0;"/><polygon fill="none" points="465.83,122.3931,486.98,121.0951,471.256,135.2991,465.83,122.3931" style="stroke: #A80036; stroke-width: 1.0;"/><path d="M501.204,147.0541 C489.355,169.3971 475.141,196.2021 465.23,214.8911 " fill="none" style="stroke: #A80036; stroke-width: 1.0;"/><polygon fill="none" points="495.092,143.6381,510.647,129.2481,507.461,150.1971,495.092,143.6381" style="stroke: #A80036; stroke-width: 1.0;"/><path d="M545.107,147.0541 C557.125,169.3971 571.543,196.2021 581.595,214.8911 " fill="none" style="stroke: #A80036; stroke-width: 1.0;"/><polygon fill="none" points="538.839,150.1781,535.53,129.2481,551.169,143.5461,538.839,150.1781" style="stroke: #A80036; stroke-width: 1.0;"/><path d="M577.308,132.6741 C607.743,148.1841 646.084,168.6251 679,188.9531 C691.876,196.9051 705.56,206.3901 717.319,214.8871 " fill="none" style="stroke: #A80036; stroke-width: 1.0;"/><polygon fill="none" points="573.756,138.7221,559.044,123.4721,580.055,126.2201,573.756,138.7221" style="stroke: #A80036; stroke-width: 1.0;"/></g></svg>